<?xml version="1.0" standalone="no"?>
<svg xmlns:xlink="http://www.w3.org/1999/xlink" id="wave" style="transform:rotate(0deg); transition: 0.3s" viewBox="0 0 1440 490" version="1.1" xmlns="http://www.w3.org/2000/svg"><defs><linearGradient id="sw-gradient-0" x1="0" x2="0" y1="1" y2="0"><stop stop-color="rgba(62, 218.475, 243, 1)" offset="0%"/><stop stop-color="rgba(11, 81.428, 255, 1)" offset="100%"/></linearGradient></defs><path style="transform:translate(0, 0px); opacity:1" fill="url(#sw-gradient-0)" d="M0,147L40,179.7C80,212,160,278,240,310.3C320,343,400,343,480,343C560,343,640,343,720,326.7C800,310,880,278,960,269.5C1040,261,1120,278,1200,236.8C1280,196,1360,98,1440,106.2C1520,114,1600,229,1680,277.7C1760,327,1840,310,1920,326.7C2000,343,2080,392,2160,408.3C2240,425,2320,408,2400,392C2480,376,2560,359,2640,351.2C2720,343,2800,343,2880,359.3C2960,376,3040,408,3120,367.5C3200,327,3280,212,3360,204.2C3440,196,3520,294,3600,294C3680,294,3760,196,3840,179.7C3920,163,4000,229,4080,212.3C4160,196,4240,98,4320,73.5C4400,49,4480,98,4560,98C4640,98,4720,49,4800,98C4880,147,4960,294,5040,359.3C5120,425,5200,408,5280,359.3C5360,310,5440,229,5520,212.3C5600,196,5680,245,5720,269.5L5760,294L5760,490L5720,490C5680,490,5600,490,5520,490C5440,490,5360,490,5280,490C5200,490,5120,490,5040,490C4960,490,4880,490,4800,490C4720,490,4640,490,4560,490C4480,490,4400,490,4320,490C4240,490,4160,490,4080,490C4000,490,3920,490,3840,490C3760,490,3680,490,3600,490C3520,490,3440,490,3360,490C3280,490,3200,490,3120,490C3040,490,2960,490,2880,490C2800,490,2720,490,2640,490C2560,490,2480,490,2400,490C2320,490,2240,490,2160,490C2080,490,2000,490,1920,490C1840,490,1760,490,1680,490C1600,490,1520,490,1440,490C1360,490,1280,490,1200,490C1120,490,1040,490,960,490C880,490,800,490,720,490C640,490,560,490,480,490C400,490,320,490,240,490C160,490,80,490,40,490L0,490Z"/></svg>